<?xml version="1.0" encoding="UTF-8"?>
<svg version="1.1" xmlns="http://www.w3.org/2000/svg" width="488" height="148">
<path d="M0 0 C0.79629318 0.09492737 1.59258636 0.18985474 2.41300964 0.28765869 C3.31228935 0.40001862 3.31228935 0.40001862 4.22973633 0.51464844 C4.27610515 9.6855282 4.31162864 18.85636751 4.33336067 28.02733898 C4.34379168 32.28592766 4.35793842 36.54443604 4.38061523 40.80297852 C4.40236796 44.9137736 4.4143101 49.02449153 4.41949081 53.13533974 C4.42318221 54.70260139 4.43039058 56.26985888 4.44119644 57.83708763 C4.45574375 60.03463192 4.45771293 62.23185856 4.45678711 64.42944336 C4.46122833 65.67964767 4.46566956 66.92985199 4.47024536 68.21794128 C4.15652763 72.51813519 3.32642221 75.35398921 0.35473633 78.49902344 C-0.69713867 79.37300781 -0.69713867 79.37300781 -1.77026367 80.26464844 C-2.82213867 81.15410156 -2.82213867 81.15410156 -3.89526367 82.06152344 C-8.58127622 85.69318316 -14.07642203 85.05053942 -19.77026367 84.51464844 C-24.19091301 82.42065665 -26.99008067 80.1221809 -28.77026367 75.51464844 C-28.97781864 71.25977154 -28.27013625 68.29031278 -25.95776367 64.70214844 C-22.53401002 61.27839479 -20.54366986 59.70799998 -15.77026367 58.51464844 C-12.47026367 58.51464844 -9.17026367 58.51464844 -5.77026367 58.51464844 C-5.44026367 48.61464844 -5.11026367 38.71464844 -4.77026367 28.51464844 C-7.47213867 28.74152344 -10.17401367 28.96839844 -12.95776367 29.20214844 C-13.75851318 29.26104248 -14.5592627 29.31993652 -15.38427734 29.38061523 C-25.35830646 30.33387538 -35.0719843 33.09494497 -44.77026367 35.51464844 C-44.77612991 36.10489304 -44.78199615 36.69513763 -44.78804016 37.30326843 C-44.85202035 43.45176108 -44.93645207 49.59973254 -45.03271484 55.74780273 C-45.06595002 58.04167811 -45.09398631 60.33563498 -45.11669922 62.62963867 C-45.15027041 65.92890117 -45.20258902 69.22741774 -45.25854492 72.52636719 C-45.26812981 74.06256966 -45.26812981 74.06256966 -45.27790833 75.62980652 C-45.4027778 81.68977224 -45.87858832 85.60089923 -50.30541992 90.06152344 C-56.74554688 95.13456462 -61.63679592 95.24596875 -69.77026367 94.51464844 C-73.59167928 93.09305368 -75.50511796 90.912367 -77.77026367 87.51464844 C-78.50910589 84.05056852 -78.55114069 80.97356676 -77.77026367 77.51464844 C-74.5952631 73.30181475 -69.96788466 69.68411316 -64.77026367 68.51464844 C-57.75152432 68.02401811 -57.75152432 68.02401811 -54.77026367 69.51464844 C-54.77026367 50.37464844 -54.77026367 31.23464844 -54.77026367 11.51464844 C-41.64030249 4.94966785 -27.99895153 2.0053035 -13.45776367 0.26464844 C-12.3652832 0.12627563 -12.3652832 0.12627563 -11.25073242 -0.01489258 C-7.39952164 -0.43655481 -3.85230785 -0.46872525 0 0 Z " fill="#131313" transform="translate(113.770263671875,34.4853515625)"/>
<path d="M0 0 C6.93 0 13.86 0 21 0 C26.7 5.7 26.7 5.7 27.0859375 11.7734375 C26.97019555 14.77220614 26.19368423 17.26154795 25 20 C25.66 20 26.32 20 27 20 C29.45314583 24.33716183 29.68811626 28.10672882 29 33 C26.53500606 37.92998788 24.88961052 39.06623369 20 42 C13.4 42 6.8 42 0 42 C0 28.14 0 14.28 0 0 Z M7 6 C7 9.3 7 12.6 7 16 C8.588125 16.061875 10.17625 16.12375 11.8125 16.1875 C12.70582031 16.22230469 13.59914063 16.25710937 14.51953125 16.29296875 C17.03589473 16.19800682 17.03589473 16.19800682 18.83984375 14.68359375 C20.32365036 12.90944483 20.32365036 12.90944483 19.75 9.875 C19.29066476 7.12209159 19.29066476 7.12209159 18 6 C16.14712498 5.92773498 14.29166122 5.9161878 12.4375 5.9375 C11.42558594 5.94652344 10.41367188 5.95554687 9.37109375 5.96484375 C8.58863281 5.97644531 7.80617187 5.98804688 7 6 Z M7 22 C7 26.62 7 31.24 7 36 C14.17687826 36.63724741 14.17687826 36.63724741 20.6875 34.375 C22.39059083 31.2932166 22.50679416 29.47515996 22 26 C20.94885685 23.730016 20.94885685 23.730016 19 22 C16.03164137 21.51592066 16.03164137 21.51592066 12.8125 21.75 C10.894375 21.8325 8.97625 21.915 7 22 Z " fill="#202020" transform="translate(244,54)"/>
<path d="M0 0 C4.86264669 4.25756622 8.33620617 9.61568273 9.31640625 16.08984375 C9.65836778 22.36649246 7.62768896 27.3809687 5 33 C4.34 33 3.68 33 3 33 C3 33.66 3 34.32 3 35 C-4.06577278 40.11218702 -10.38393226 41.17491833 -19 40 C-25.89498836 37.94895916 -29.28307717 34.06593362 -32.75 27.875 C-34.89077359 22.4461874 -35.04749899 16.27765814 -33.2734375 10.7265625 C-32.31456688 8.69188581 -31.24797932 6.86992311 -30 5 C-29.63777344 4.42121094 -29.27554688 3.84242187 -28.90234375 3.24609375 C-26.26845443 -0.45920818 -23.62120876 -1.94265555 -19.171875 -2.75390625 C-12.35190176 -3.526673 -6.0657785 -3.6215513 0 0 Z M-24.3125 9.5625 C-27.23915053 13.78988409 -27.65474646 17.98335103 -27 23 C-25.57701799 27.03313757 -23.46735924 29.57611604 -20.3125 32.4375 C-16.01823485 34.46309677 -12.66577267 34.80415472 -8 34 C-3.22297536 31.83681903 -0.71502254 28.98641183 1.36328125 24.27734375 C2.55580844 20.01204711 2.30800529 16.21164006 1 12 C-1.52973424 7.79924865 -4.44768393 4.89164202 -9 3 C-16.02318514 2.2196461 -19.66804214 4.41593859 -24.3125 9.5625 Z " fill="#282828" transform="translate(174,56)"/>
<path d="M0 0 C1.98 0 3.96 0 6 0 C7.05928333 7.76807776 7.14947817 15.4169863 7.125 23.25 C7.13080078 25.12945312 7.13080078 25.12945312 7.13671875 27.046875 C7.13542969 28.2534375 7.13414062 29.46 7.1328125 30.703125 C7.13168457 31.79270508 7.13055664 32.88228516 7.12939453 34.00488281 C7.00937252 36.78305268 6.63093546 39.29706498 6 42 C4.865625 41.979375 3.73125 41.95875 2.5625 41.9375 C-0.58119873 41.90423335 -3.41381811 42.24356908 -6.5 42.8125 C-11.01283229 43.35122911 -13.69028841 42.224022 -17.33203125 39.578125 C-20.62338222 36.46405992 -21.91292397 33.26793476 -22.0859375 28.76171875 C-21.75492431 23.578749 -20.5583704 19.93293571 -17 16 C-11.5292323 12.73858079 -8.00887636 12.77785566 -2 14 C-1.34 14.33 -0.68 14.66 0 15 C0 10.05 0 5.1 0 0 Z M-12.3125 20.875 C-15.09652107 24.38080431 -15.35032888 26.53330682 -15 31 C-14.09762034 33.89299553 -14.09762034 33.89299553 -12 36 C-8.54289236 36.94284754 -6.14573242 37.34062315 -2.6875 36.3125 C-0.568212 34.66416489 0.14874336 33.55376992 1 31 C1.49440173 26.35262375 0.78751943 23.75243 -2 20 C-5.82181054 18.08909473 -8.99317122 18.18365234 -12.3125 20.875 Z " fill="#1F1F1F" transform="translate(459,54)"/>
<path d="M0 0 C3.27917644 2.52736526 5.18763824 4.98103551 6.1640625 8.984375 C6.2890625 12.296875 6.2890625 12.296875 6.1640625 14.984375 C2.45959697 16.21919684 -0.9802383 16.12995702 -4.8359375 16.109375 C-5.56039063 16.11324219 -6.28484375 16.11710937 -7.03125 16.12109375 C-10.22876629 16.11519427 -12.78176357 16.00243298 -15.8359375 14.984375 C-14.75338343 17.54127923 -14.75338343 17.54127923 -12.8359375 19.984375 C-8.43421905 21.41971797 -5.95436572 20.8766258 -1.8359375 18.984375 C-0.8459375 18.984375 0.1440625 18.984375 1.1640625 18.984375 C2.8515625 21.484375 2.8515625 21.484375 4.1640625 23.984375 C-1.57817863 28.01570629 -7.04552633 27.7274766 -13.8359375 26.984375 C-18.12084472 25.21130994 -19.92705518 23.36636716 -21.7734375 19.234375 C-23.55472188 13.53002382 -22.86232473 9.07662589 -20.2109375 3.671875 C-14.91581203 -2.31997751 -7.08403636 -3.91882862 0 0 Z M-13.2734375 5.234375 C-15.16894538 6.96633707 -15.16894538 6.96633707 -14.8359375 9.984375 C-10.2159375 9.984375 -5.5959375 9.984375 -0.8359375 9.984375 C-3.20977794 4.74419695 -3.20977794 4.74419695 -7.2734375 3.984375 C-10.76416269 3.71343699 -10.76416269 3.71343699 -13.2734375 5.234375 Z " fill="#262626" transform="translate(300.8359375,69.015625)"/>
<path d="M0 0 C1.98 0 3.96 0 6 0 C6.98163422 1.93625098 7.96022454 3.87404539 8.9375 5.8125 C9.48277344 6.89144531 10.02804687 7.97039062 10.58984375 9.08203125 C12 12 12 12 13 15 C16.465 7.575 16.465 7.575 20 0 C22.31 0 24.62 0 27 0 C24.60622195 7.54160174 21.73177099 14.82373343 18.6875 22.125 C18.22666016 23.26582031 17.76582031 24.40664062 17.29101562 25.58203125 C14.60170713 32.0229064 12.02848804 37.10984726 7 42 C3.57614946 43.16410918 1.98011909 43.38688911 -1.375 42.0625 C-2.179375 41.5365625 -2.179375 41.5365625 -3 41 C-2.01 38.03 -2.01 38.03 -1 35 C0.65 35 2.3 35 4 35 C7.78630962 29.91763326 7.78630962 29.91763326 8.875 23.890625 C8.08065131 21.48952556 7.08903203 19.28422757 6 17 C5.20702908 15.17696384 4.4144664 13.35372677 3.63208008 11.52612305 C2.8404394 9.68980909 2.02415823 7.86417823 1.20703125 6.0390625 C0 3 0 3 0 0 Z " fill="#2D2D2D" transform="translate(309,68)"/>
<path d="M0 0 C3.27921365 2.82376731 5.03365302 5.78464671 6.25 9.9375 C6.53732935 15.17037701 5.63627538 19.82559419 2.25 23.9375 C-1.86190581 27.32377538 -6.51712299 28.22482935 -11.75 27.9375 C-15.90285329 26.72115302 -18.86373269 24.96671365 -21.6875 21.6875 C-23.75697416 16.33121394 -24.27714665 12.60217364 -22.5625 7.1875 C-20.20631513 2.96261678 -18.38150196 0.71617139 -14 -1.375 C-8.92939317 -2.44762837 -4.81158977 -1.85902332 0 0 Z M-15.75 7.9375 C-17.16000664 10.75751327 -16.99548451 12.80757255 -16.75 15.9375 C-15.92020292 18.84828244 -15.92020292 18.84828244 -13.75 20.9375 C-11.03720526 21.92815965 -8.62304043 22.25029069 -5.75 21.9375 C-3.2698649 20.09329697 -2.11858837 18.67467673 -0.75 15.9375 C-0.45123081 12.57634658 -0.61548326 10.29357373 -1.8125 7.125 C-3.67645118 4.6422933 -3.67645118 4.6422933 -7.125 3.875 C-11.46445815 3.94981824 -12.77347407 4.87342919 -15.75 7.9375 Z " fill="#2A2A2A" transform="translate(361.75,69.0625)"/>
<path d="M0 0 C1.4540625 0.0309375 1.4540625 0.0309375 2.9375 0.0625 C3.94122611 5.58299362 3.92154447 10.78523395 3.6796875 16.390625 C3.71628381 19.07585934 3.71628381 19.07585934 5.25390625 20.9296875 C7.02340906 22.3614696 7.02340906 22.3614696 10 21.9375 C13.23005415 21.31599587 13.23005415 21.31599587 14.9375 18.0625 C15.30101504 16.03707852 15.30101504 16.03707852 15.3515625 13.83203125 C15.39023437 13.02958984 15.42890625 12.22714844 15.46875 11.40039062 C15.51515625 10.15032227 15.51515625 10.15032227 15.5625 8.875 C15.60117187 8.03001953 15.63984375 7.18503906 15.6796875 6.31445312 C15.77386279 4.23082476 15.85676675 2.14669247 15.9375 0.0625 C18.2475 0.0625 20.5575 0.0625 22.9375 0.0625 C22.9375 9.3025 22.9375 18.5425 22.9375 28.0625 C20.6275 28.0625 18.3175 28.0625 15.9375 28.0625 C15.6075 27.4025 15.2775 26.7425 14.9375 26.0625 C13.926875 26.59875 12.91625 27.135 11.875 27.6875 C8.68549788 29.05905061 7.84733352 29.04747225 4.1875 28.4375 C-0.49369266 26.45699541 -0.49369266 26.45699541 -2.0625 24.0625 C-3.87231556 18.79939667 -4.34693818 14.22828234 -4.25 8.6875 C-4.24935547 7.96433594 -4.24871094 7.24117188 -4.24804688 6.49609375 C-4.19392443 0.08559029 -4.19392443 0.08559029 0 0 Z " fill="#2F2F2F" transform="translate(376.0625,67.9375)"/>
<path d="M0 0 C3.47986811 2.73947064 5.22974996 4.67862309 6 9 C6.07818636 10.51395696 6.10789909 12.03093507 6.09765625 13.546875 C6.09443359 14.39121094 6.09121094 15.23554687 6.08789062 16.10546875 C6.07951172 16.97816406 6.07113281 17.85085937 6.0625 18.75 C6.05798828 19.63816406 6.05347656 20.52632812 6.04882812 21.44140625 C6.037074 23.62767329 6.02064249 25.81380179 6 28 C3.69 28 1.38 28 -1 28 C-1.02505615 27.40461426 -1.0501123 26.80922852 -1.07592773 26.19580078 C-1.19177494 23.50530864 -1.31455196 20.8151766 -1.4375 18.125 C-1.47681641 17.18785156 -1.51613281 16.25070313 -1.55664062 15.28515625 C-1.59853516 14.38925781 -1.64042969 13.49335937 -1.68359375 12.5703125 C-1.72025146 11.74289551 -1.75690918 10.91547852 -1.79467773 10.06298828 C-1.88238327 7.93820571 -1.88238327 7.93820571 -3 6 C-5.97 6 -8.94 6 -12 6 C-12.75427531 13.32724583 -13.40708822 20.65798605 -14 28 C-15.98 28 -17.96 28 -20 28 C-20 18.76 -20 9.52 -20 0 C-17 0 -14 0 -11 0 C-7.14514138 -1.28495287 -3.85894066 -1.10577832 0 0 Z " fill="#282828" transform="translate(426,68)"/>
<path d="M0 0 C2.31 0 4.62 0 7 0 C7.33 7.26 7.66 14.52 8 22 C10.97 22 13.94 22 17 22 C17 21.34 17 20.68 17 20 C17.66 20 18.32 20 19 20 C19.33 13.4 19.66 6.8 20 0 C21.98 0 23.96 0 26 0 C26.85481185 9.508138 27.04377631 18.47754842 26 28 C24.02 28 22.04 28 20 28 C19.67 27.34 19.34 26.68 19 26 C18.01 26.66 17.02 27.32 16 28 C12.03617444 28.9722591 9.65345784 29.21363045 5.75 27.9375 C2.3068633 25.51165369 1.49846466 23.94493757 0 20 C-0.34775421 16.53070364 -0.28436201 13.107065 -0.1875 9.625 C-0.17396484 8.69816406 -0.16042969 7.77132812 -0.14648438 6.81640625 C-0.11133881 4.54366002 -0.06214132 2.27214153 0 0 Z " fill="#242424" transform="translate(187,68)"/>
<path d="M0 0 C1.98 0 3.96 0 6 0 C6 2.97 6 5.94 6 9 C8.64 9 11.28 9 14 9 C14 10.65 14 12.3 14 14 C11.36 14 8.72 14 6 14 C6.66 19.28 7.32 24.56 8 30 C10.94729537 31.15811388 10.94729537 31.15811388 14 31 C15 34 15 34 14 37 C12.60696395 37.13657216 11.20993879 37.23271149 9.8125 37.3125 C9.03519531 37.37050781 8.25789062 37.42851563 7.45703125 37.48828125 C3.6351904 36.72877393 2.29836448 35.0964077 0 32 C-0.71533239 29.05807464 -0.78972777 26.20608527 -0.8125 23.1875 C-0.85020508 22.00510742 -0.85020508 22.00510742 -0.88867188 20.79882812 C-0.94722981 18.86641627 -0.97655488 16.93315673 -1 15 C-1.66 14.67 -2.32 14.34 -3 14 C-3 12.35 -3 10.7 -3 9 C-2.01 9 -1.02 9 0 9 C0 6.03 0 3.06 0 0 Z " fill="#252525" transform="translate(222,59)"/>
<path d="M0 0 C0.99 0.33 1.98 0.66 3 1 C-0.465 3.97 -0.465 3.97 -4 7 C-2.92598892 4.08482708 -2.22189824 2.22189824 0 0 Z " fill="#4B4B4B" transform="translate(284,69)"/>
<path d="" fill="#FFFFFF" transform="translate(0,0)"/>
<path d="" fill="#FFFFFF" transform="translate(0,0)"/>
<path d="" fill="#FFFFFF" transform="translate(0,0)"/>
<path d="" fill="#FFFFFF" transform="translate(0,0)"/>
<path d="" fill="#FFFFFF" transform="translate(0,0)"/>
<path d="" fill="#FFFFFF" transform="translate(0,0)"/>
<path d="" fill="#FFFFFF" transform="translate(0,0)"/>
<path d="" fill="#FFFFFF" transform="translate(0,0)"/>
<path d="" fill="#FFFFFF" transform="translate(0,0)"/>
<path d="" fill="#FFFFFF" transform="translate(0,0)"/>
<path d="" fill="#FFFFFF" transform="translate(0,0)"/>
<path d="" fill="#FFFFFF" transform="translate(0,0)"/>
<path d="" fill="#FFFFFF" transform="translate(0,0)"/>
<path d="" fill="#FFFFFF" transform="translate(0,0)"/>
<path d="" fill="#FFFFFF" transform="translate(0,0)"/>
<path d="" fill="#FFFFFF" transform="translate(0,0)"/>
<path d="" fill="#FFFFFF" transform="translate(0,0)"/>
<path d="" fill="#FFFFFF" transform="translate(0,0)"/>
<path d="" fill="#FFFFFF" transform="translate(0,0)"/>
<path d="" fill="#FFFFFF" transform="translate(0,0)"/>
<path d="" fill="#FFFFFF" transform="translate(0,0)"/>
<path d="" fill="#FFFFFF" transform="translate(0,0)"/>
<path d="" fill="#FFFFFF" transform="translate(0,0)"/>
<path d="" fill="#FFFFFF" transform="translate(0,0)"/>
<path d="" fill="#FFFFFF" transform="translate(0,0)"/>
<path d="" fill="#FFFFFF" transform="translate(0,0)"/>
<path d="" fill="#FFFFFF" transform="translate(0,0)"/>
<path d="" fill="#FFFFFF" transform="translate(0,0)"/>
<path d="" fill="#FFFFFF" transform="translate(0,0)"/>
<path d="" fill="#FFFFFF" transform="translate(0,0)"/>
<path d="" fill="#FFFFFF" transform="translate(0,0)"/>
<path d="" fill="#FFFFFF" transform="translate(0,0)"/>
<path d="" fill="#FFFFFF" transform="translate(0,0)"/>
<path d="" fill="#FFFFFF" transform="translate(0,0)"/>
<path d="" fill="#FFFFFF" transform="translate(0,0)"/>
<path d="" fill="#FFFFFF" transform="translate(0,0)"/>
<path d="" fill="#FFFFFF" transform="translate(0,0)"/>
<path d="" fill="#FFFFFF" transform="translate(0,0)"/>
<path d="" fill="#FFFFFF" transform="translate(0,0)"/>
<path d="" fill="#FFFFFF" transform="translate(0,0)"/>
<path d="" fill="#FFFFFF" transform="translate(0,0)"/>
<path d="" fill="#FFFFFF" transform="translate(0,0)"/>
<path d="" fill="#FFFFFF" transform="translate(0,0)"/>
<path d="" fill="#FFFFFF" transform="translate(0,0)"/>
<path d="" fill="#FFFFFF" transform="translate(0,0)"/>
<path d="" fill="#FFFFFF" transform="translate(0,0)"/>
<path d="" fill="#FFFFFF" transform="translate(0,0)"/>
<path d="" fill="#FFFFFF" transform="translate(0,0)"/>
<path d="" fill="#FFFFFF" transform="translate(0,0)"/>
<path d="" fill="#FFFFFF" transform="translate(0,0)"/>
<path d="" fill="#FFFFFF" transform="translate(0,0)"/>
<path d="" fill="#FFFFFF" transform="translate(0,0)"/>
<path d="" fill="#FFFFFF" transform="translate(0,0)"/>
<path d="" fill="#FFFFFF" transform="translate(0,0)"/>
<path d="" fill="#FFFFFF" transform="translate(0,0)"/>
<path d="" fill="#FFFFFF" transform="translate(0,0)"/>
<path d="" fill="#FFFFFF" transform="translate(0,0)"/>
<path d="" fill="#FFFFFF" transform="translate(0,0)"/>
<path d="" fill="#FFFFFF" transform="translate(0,0)"/>
<path d="" fill="#FFFFFF" transform="translate(0,0)"/>
<path d="" fill="#FFFFFF" transform="translate(0,0)"/>
<path d="" fill="#FFFFFF" transform="translate(0,0)"/>
<path d="" fill="#FFFFFF" transform="translate(0,0)"/>
<path d="" fill="#FFFFFF" transform="translate(0,0)"/>
<path d="" fill="#FFFFFF" transform="translate(0,0)"/>
<path d="" fill="#FFFFFF" transform="translate(0,0)"/>
<path d="" fill="#FFFFFF" transform="translate(0,0)"/>
<path d="" fill="#FFFFFF" transform="translate(0,0)"/>
<path d="" fill="#FFFFFF" transform="translate(0,0)"/>
<path d="" fill="#FFFFFF" transform="translate(0,0)"/>
<path d="" fill="#FFFFFF" transform="translate(0,0)"/>
<path d="" fill="#FFFFFF" transform="translate(0,0)"/>
<path d="" fill="#FFFFFF" transform="translate(0,0)"/>
<path d="" fill="#FFFFFF" transform="translate(0,0)"/>
<path d="" fill="#FFFFFF" transform="translate(0,0)"/>
<path d="" fill="#FFFFFF" transform="translate(0,0)"/>
<path d="" fill="#FFFFFF" transform="translate(0,0)"/>
<path d="" fill="#FFFFFF" transform="translate(0,0)"/>
<path d="" fill="#FFFFFF" transform="translate(0,0)"/>
<path d="" fill="#FFFFFF" transform="translate(0,0)"/>
<path d="" fill="#FFFFFF" transform="translate(0,0)"/>
<path d="" fill="#FFFFFF" transform="translate(0,0)"/>
<path d="" fill="#FFFFFF" transform="translate(0,0)"/>
<path d="" fill="#FFFFFF" transform="translate(0,0)"/>
<path d="" fill="#FFFFFF" transform="translate(0,0)"/>
<path d="" fill="#FFFFFF" transform="translate(0,0)"/>
<path d="" fill="#FFFFFF" transform="translate(0,0)"/>
<path d="" fill="#FFFFFF" transform="translate(0,0)"/>
<path d="" fill="#FFFFFF" transform="translate(0,0)"/>
<path d="" fill="#FFFFFF" transform="translate(0,0)"/>
</svg>
